<svg xmlns="http://www.w3.org/2000/svg" version="1.1" xmlns:xlink="http://www.w3.org/1999/xlink" xmlns:svgjs="http://svgjs.com/svgjs" width="1440" height="560" preserveAspectRatio="none" viewBox="0 0 1440 560"><g mask="url(&quot;#SvgjsMask1059&quot;)" fill="none"><rect width="1440" height="560" x="0" y="0" fill="rgba(255, 227, 219, 1)"></rect><path d="M 0,158 C 57.6,138.2 172.8,58.6 288,59 C 403.2,59.4 460.8,161.2 576,160 C 691.2,158.8 748.8,31 864,53 C 979.2,75 1036.8,271.6 1152,270 C 1267.2,268.4 1382.4,90 1440,45L1440 560L0 560z" fill="rgba(255, 212, 212, 1)"></path><path d="M 0,414 C 57.6,430.8 172.8,518.4 288,498 C 403.2,477.6 460.8,314 576,312 C 691.2,310 748.8,466.8 864,488 C 979.2,509.2 1036.8,408.8 1152,418 C 1267.2,427.2 1382.4,510.8 1440,534L1440 560L0 560z" fill="rgba(255, 242, 238, 1)"></path></g><defs><mask id="SvgjsMask1059"><rect width="1440" height="560" fill="#ffffff"></rect></mask></defs></svg>